<?xml version="1.0" encoding="utf-8"?>
<!-- Generator: Adobe Illustrator 23.1.1, SVG Export Plug-In . SVG Version: 6.00 Build 0)  -->
<svg version="1.1" id="Capa_1" xmlns="http://www.w3.org/2000/svg" xmlns:xlink="http://www.w3.org/1999/xlink" x="0px" y="0px"
	 viewBox="0 0 444.7 570.7" style="enable-background:new 0 0 444.7 570.7;" xml:space="preserve">
<path d="M155.7,73.7h-3.4c-18.1,0-33.5,11.7-39.1,27.9H51.4C23.1,101.6,0,124.7,0,153v366.3c0,28.4,23.1,51.4,51.4,51.4h341.9
	c28.4,0,51.4-23.1,51.4-51.4V153c0-28.4-23.1-51.4-51.4-51.4H337c-5.5-15.9-20.6-27.6-38.3-27.9h-0.6c-0.1,0-0.1,0-0.2,0h-7.8
	c-2.6,0-4.2-1.1-5-2c-1.2-1.3-1.8-3-1.7-4.8c0-0.2,0-0.4,0-0.6v-4.5c0-16.8-6.6-32.5-18.5-44.2C253.2,5.9,237.5-0.3,220.8,0
	c-0.1,0-0.2,0-0.3,0c-31.9,1.4-58,27.3-59.3,59c0,0.2,0,0.3,0,0.5v7.3c0,0.2,0,0.4,0,0.6c0.1,1.6-0.5,3.3-1.7,4.5
	C158.9,72.6,157.6,73.7,155.7,73.7L155.7,73.7z M422.9,153v366.3c0,16.3-13.3,29.6-29.6,29.6H51.4c-16.3,0-29.6-13.3-29.6-29.6V153
	c0-16.3,13.3-29.6,29.6-29.6H111V146c0,6,4.9,10.9,10.9,10.9h206.5c6,0,10.9-4.9,10.9-10.9v-22.5h54
	C409.7,123.5,422.9,136.7,422.9,153L422.9,153z M175.4,86.9c5.2-5.5,8-12.9,7.7-20.4v-6.7c1-20,18.1-36.9,38.3-37.9
	c10.7-0.2,20.8,3.8,28.4,11.3c7.7,7.5,11.9,17.7,11.9,28.6V66c-0.4,7.8,2.3,15.2,7.6,20.8c5.4,5.7,12.8,8.9,20.9,8.9h7.7h0.5
	c10.5,0.2,19.1,8.9,19.1,19.4v20.1H132.9V115c0-10.7,8.7-19.4,19.4-19.4h3.4C163.1,95.5,170.3,92.4,175.4,86.9L175.4,86.9z"/>
<g>
	<path d="M271.4,394.5c-54.6,0-99-44.4-99-99s44.4-99,99-99s99,44.4,99,99S326,394.5,271.4,394.5z M271.4,204.4
		c-50.2,0-91.1,40.9-91.1,91.1s40.9,91.1,91.1,91.1s91.1-40.9,91.1-91.1S321.6,204.4,271.4,204.4z"/>
	<path d="M271.4,394.5c-54.6,0-99-44.4-99-99s44.4-99,99-99s99,44.4,99,99S326,394.5,271.4,394.5z M271.4,204.4
		c-50.2,0-91.1,40.9-91.1,91.1s40.9,91.1,91.1,91.1s91.1-40.9,91.1-91.1S321.6,204.4,271.4,204.4z"/>
	<path d="M271.4,394.5c-28.3,0-50.5-43.5-50.5-99s22.2-99,50.5-99s50.5,43.5,50.5,99S299.7,394.5,271.4,394.5z M271.4,204.4
		c-23.1,0-42.6,41.7-42.6,91.1s19.5,91.1,42.6,91.1s42.6-41.7,42.6-91.1S294.5,204.4,271.4,204.4z"/>
	<path d="M361.9,270.4h-181c-2.2,0-4-1.8-4-4s1.8-4,4-4h181c2.2,0,4,1.8,4,4S364.1,270.4,361.9,270.4z"/>
	<path d="M361.9,328.5h-181c-2.2,0-4-1.8-4-4s1.8-4,4-4h181c2.2,0,4,1.8,4,4S364.1,328.5,361.9,328.5z"/>
	<path d="M271.4,394.5c-2.2,0-4-1.8-4-4V200.5c0-2.2,1.8-4,4-4s4,1.8,4,4v190.1C275.4,392.7,273.6,394.5,271.4,394.5z"/>
</g>
<g>
	<path d="M121.5,507c-1.3,0-2.4-0.8-2.8-2l-11.3-33.8l-33.8-11.3c-1.1-0.4-1.9-1.3-2-2.5c-0.1-1.1,0.4-2.3,1.4-2.8l111.5-64.5
		c1-0.6,2.2-0.5,3.1,0.1c0.9,0.7,1.4,1.8,1.2,2.9l-17.6,99.7c-0.2,0.9-0.7,1.6-1.5,2.1c-0.8,0.4-1.7,0.5-2.6,0.1l-37.7-16.2
		l-5.2,25.8c-0.3,1.3-1.4,2.3-2.7,2.4C121.6,507,121.5,507,121.5,507z M81.6,456.4l29,9.7c0.9,0.3,1.6,1,1.9,1.9l8.2,24.7l3.7-18.5
		c0.2-0.9,0.7-1.6,1.5-2c0.8-0.4,1.7-0.5,2.5-0.1l37.7,16.1l15.9-89.9L81.6,456.4z"/>
	<path d="M127.3,477.7c-0.6,0-1.2-0.2-1.7-0.5c-1.3-0.9-1.6-2.8-0.7-4.1l38.1-53.3L111.8,471c-1.1,1.1-3,1.1-4.1,0
		c-1.1-1.1-1.1-3,0-4.1l76.3-76.3c1.1-1.1,2.8-1.2,4-0.2c1.2,1,1.4,2.7,0.5,3.9l-58.7,82.1C129.1,477.2,128.2,477.7,127.3,477.7z"/>
	<path d="M121.5,507c-0.6,0-1.2-0.2-1.8-0.6c-1.3-1-1.6-2.8-0.6-4.1l17.6-23.5c1-1.3,2.8-1.6,4.1-0.6c1.3,1,1.6,2.8,0.6,4.1
		l-17.6,23.5C123.2,506.6,122.3,507,121.5,507z"/>
</g>
</svg>
