<?xml version="1.0" encoding="utf-8"?>
<!-- Generator: Adobe Illustrator 23.1.1, SVG Export Plug-In . SVG Version: 6.00 Build 0)  -->
<svg version="1.1" id="Capa_1" xmlns="http://www.w3.org/2000/svg" xmlns:xlink="http://www.w3.org/1999/xlink" x="0px" y="0px"
	 viewBox="0 0 444.7 570.7" style="enable-background:new 0 0 444.7 570.7;" xml:space="preserve">
<path d="M155.7,73.7h-3.4c-18.1,0-33.5,11.7-39.1,27.9H51.4C23.1,101.6,0,124.7,0,153v366.3c0,28.4,23.1,51.4,51.4,51.4h341.9
	c28.4,0,51.4-23.1,51.4-51.4V153c0-28.4-23.1-51.4-51.4-51.4H337c-5.5-15.9-20.6-27.6-38.3-27.9h-0.6c-0.1,0-0.1,0-0.2,0h-7.8
	c-2.6,0-4.2-1.1-5-2c-1.2-1.3-1.8-3-1.7-4.8c0-0.2,0-0.4,0-0.6v-4.5c0-16.8-6.6-32.5-18.5-44.2C253.2,5.9,237.5-0.3,220.8,0
	c-0.1,0-0.2,0-0.3,0c-31.9,1.4-58,27.3-59.3,59c0,0.2,0,0.3,0,0.5v7.3c0,0.2,0,0.4,0,0.6c0.1,1.6-0.5,3.3-1.7,4.5
	C158.9,72.6,157.6,73.7,155.7,73.7L155.7,73.7z M422.9,153v366.3c0,16.3-13.3,29.6-29.6,29.6H51.4c-16.3,0-29.6-13.3-29.6-29.6V153
	c0-16.3,13.3-29.6,29.6-29.6H111V146c0,6,4.9,10.9,10.9,10.9h206.5c6,0,10.9-4.9,10.9-10.9v-22.5h54
	C409.7,123.5,422.9,136.7,422.9,153L422.9,153z M175.4,86.9c5.2-5.5,8-12.9,7.7-20.4v-6.7c1-20,18.1-36.9,38.3-37.9
	c10.7-0.2,20.8,3.8,28.4,11.3c7.7,7.5,11.9,17.7,11.9,28.6V66c-0.4,7.8,2.3,15.2,7.6,20.8c5.4,5.7,12.8,8.9,20.9,8.9h7.7h0.5
	c10.5,0.2,19.1,8.9,19.1,19.4v20.1H132.9V115c0-10.7,8.7-19.4,19.4-19.4h3.4C163.1,95.5,170.3,92.4,175.4,86.9L175.4,86.9z"/>
<g>
	<path d="M221.2,470.9c-65.5,0-118.8-53.3-118.8-118.8s53.3-118.8,118.8-118.8S340,286.5,340,352.1S286.8,470.9,221.2,470.9z
		 M221.2,242.7c-60.2,0-109.3,49.1-109.3,109.3S161,461.4,221.2,461.4s109.3-49.1,109.3-109.3S281.5,242.7,221.2,242.7z"/>
	<path d="M221.2,470.9c-65.5,0-118.8-53.3-118.8-118.8s53.3-118.8,118.8-118.8S340,286.5,340,352.1S286.8,470.9,221.2,470.9z
		 M221.2,242.7c-60.2,0-109.3,49.1-109.3,109.3S161,461.4,221.2,461.4s109.3-49.1,109.3-109.3S281.5,242.7,221.2,242.7z"/>
	<path d="M221.2,470.9c-34,0-60.6-52.2-60.6-118.8s26.6-118.8,60.6-118.8s60.6,52.2,60.6,118.8S255.2,470.9,221.2,470.9z
		 M221.2,242.7c-27.7,0-51.1,50-51.1,109.3s23.4,109.3,51.1,109.3s51.1-50,51.1-109.3S249,242.7,221.2,242.7z"/>
	<path d="M329.8,321.9H112.6c-2.6,0-4.8-2.2-4.8-4.8s2.2-4.8,4.8-4.8h217.2c2.6,0,4.8,2.2,4.8,4.8S332.5,321.9,329.8,321.9z"/>
	<path d="M329.8,391.7H112.6c-2.6,0-4.8-2.2-4.8-4.8s2.2-4.8,4.8-4.8h217.2c2.6,0,4.8,2.2,4.8,4.8S332.5,391.7,329.8,391.7z"/>
	<path d="M221.2,470.9c-2.6,0-4.8-2.2-4.8-4.8v-228c0-2.6,2.2-4.8,4.8-4.8s4.8,2.2,4.8,4.8v228.1C226,468.7,223.9,470.9,221.2,470.9
		z"/>
</g>
</svg>
