<svg id="Capa_1" data-name="Capa 1" xmlns="http://www.w3.org/2000/svg" viewBox="0 0 775.87 119.23"><defs><style>.cls-1{fill:#c54026;}.cls-2{fill:#fff;}</style></defs><title>logo</title><path class="cls-1" d="M83,72.14A31,31,0,0,0,94.62,61.31c3.09-4.8,4.66-11.18,4.66-19,0-11.57-3.79-20.94-11.26-27.86S70.67,4.16,58.43,4.16H1.83V122.05H21.37V79.49H54.5l26.8,42.56h23.27L74.46,75.85A60.43,60.43,0,0,0,83,72.14M21.37,23H56.92c7,0,12.71,1.78,16.85,5.29s6,8,6,14c0,4.79-1.14,8.49-3.38,11a18.67,18.67,0,0,1-8.87,5.6,39.38,39.38,0,0,1-11.24,1.7H21.37Z" transform="translate(-1.83 -4.16)"/><polygon class="cls-1" points="112.09 117.89 200.66 117.89 200.66 98.86 131.63 98.86 131.63 68.46 193.29 68.46 193.29 49.26 131.63 49.26 131.63 19.03 200.66 19.03 200.66 0 112.09 0 112.09 117.89"/><path class="cls-1" d="M316,38.5a56.22,56.22,0,0,0-12.16-18.57A53.2,53.2,0,0,0,266,4.16H215.79V122.05H266a53,53,0,0,0,20.34-4,53.54,53.54,0,0,0,17.47-11.73A56.22,56.22,0,0,0,316,87.72a64.8,64.8,0,0,0,4.45-24.61A64.8,64.8,0,0,0,316,38.5M235.33,23h30.19a32.47,32.47,0,0,1,18.65,5.34,36.43,36.43,0,0,1,12.31,14.47,46.22,46.22,0,0,1,4.43,20.27,45.79,45.79,0,0,1-4.43,20.1,37,37,0,0,1-12.33,14.57,32.08,32.08,0,0,1-18.63,5.41H235.33Z" transform="translate(-1.83 -4.16)"/><polygon class="cls-2" points="408.83 49.26 351.29 49.26 351.29 0 331.75 0 331.75 117.89 351.29 117.89 351.29 68.46 408.83 68.46 408.83 117.89 428.36 117.89 428.36 0 408.83 0 408.83 49.26"/><path class="cls-2" d="M530.79,71.15c0,7.9-1.51,14.33-4.49,19.1a27.55,27.55,0,0,1-11.46,10.52,35.41,35.41,0,0,1-30.43,0A26.45,26.45,0,0,1,473,90.27c-2.94-4.78-4.43-11.21-4.43-19.12v-67H449V70.82c0,10.37,2.17,19.61,6.45,27.47a46.83,46.83,0,0,0,18,18.52,55.14,55.14,0,0,0,52.41-.09,47.39,47.39,0,0,0,18-18.6c4.28-7.85,6.46-17,6.46-27.3V4.16H530.79Z" transform="translate(-1.83 -4.16)"/><polygon class="cls-2" points="650.44 86.18 587.16 0 567.33 0 567.33 117.89 586.87 117.89 586.87 31.41 650.14 117.89 669.97 117.89 669.97 0 650.44 0 650.44 86.18"/><polygon class="cls-2" points="678.92 0 678.92 18.86 717.63 18.86 717.63 117.89 737.16 117.89 737.16 18.86 775.87 18.86 775.87 0 678.92 0"/></svg>